<svg preserveAspectRatio="xMidYMid meet" data-bbox="38.5 43 123.001 114" viewBox="38.5 43 123.001 114" height="200" width="200" xmlns="http://www.w3.org/2000/svg" data-type="color" role="presentation" aria-hidden="true" aria-label="">
    <g>
        <path d="M128.28 107.066l-8.981 42.044 42.202-8.941-7.117-7.092-14.524 3.077c8.138-9.846 13.049-22.434 13.049-36.156C152.908 68.567 127.246 43 95.704 43 64.16 43 38.5 68.567 38.5 99.998S64.16 157 95.704 157c3.779 0 7.469-.377 11.042-1.077l1.944-9.099a48.741 48.741 0 0 1-12.987 1.763c-26.888 0-48.764-21.797-48.764-48.59 0-26.791 21.876-48.588 48.764-48.588s48.762 21.797 48.762 48.588c0 12.782-4.987 24.421-13.119 33.103l4.048-18.945-7.114-7.089z" fill="#FFD700" data-color="1"></path>
    </g>
</svg>