<svg preserveAspectRatio="xMidYMid meet" data-bbox="36 29.5 128 141" viewBox="36 29.5 128 141" height="200" width="200" xmlns="http://www.w3.org/2000/svg" data-type="color" role="presentation" aria-hidden="true" aria-label="">
    <g>
        <path d="M162.452 76.89l-60-46.55a3.999 3.999 0 0 0-4.904 0l-60 46.55A3.997 3.997 0 0 0 36 80.05v73.15c0 9.539 7.775 17.3 17.333 17.3h93.334c9.558 0 17.333-7.761 17.333-17.3V80.05a3.997 3.997 0 0 0-1.548-3.16zM116 162.5H84V104h32v58.5zm40-9.3c0 5.128-4.187 9.3-9.333 9.3H124V100a4 4 0 0 0-4-4H80a4 4 0 0 0-4 4v62.5H53.333c-5.146 0-9.333-4.172-9.333-9.3V82.009l56-43.446 56 43.446V153.2z" fill="#C2C2C2" data-color="1"></path>
    </g>
</svg>