<svg preserveAspectRatio="xMidYMid meet" data-bbox="14 53 172 98.1" viewBox="14 53 172 98.1" height="200" width="200" xmlns="http://www.w3.org/2000/svg" data-type="color" role="presentation" aria-hidden="true" aria-label=""><defs><style>#comp-m1hnxosf svg [data-color="1"] {fill: #C2C2C2;}</style></defs>
    <g>
        <path d="M179.1 94.8h-13.3V77.3c0-5.3-5.3-9.5-10.6-9.5-2.2 0-4.3.6-5.3 1.8v-7.2c0-5.3-4.3-9.4-9.6-9.4s-9.4 4.1-9.4 9.4v32.4H67.2V62.7c0-5.3-4.2-9.7-9.5-9.7s-9.5 4.4-9.5 9.7v7.9c-2-1.2-4.4-1.8-6.6-1.8h-.1c-5.3 0-9.3 4.2-9.3 9.5v16.5H21c-3.9 0-7 3.1-7 7s3.2 7 7 7h11.3v18c0 5.3 4 9 9.3 9 2.2 0 4.6-.1 6.6-1.3v7.1c0 5.3 4.3 9.4 9.6 9.4s9.4-4.1 9.4-9.4v-32.8H131v32.6c0 5.3 4.2 9.7 9.5 9.7s9.5-4.4 9.5-9.7v-7.9c2 1.2 3.1 1.3 5.3 1.3h.1c5.3 0 10.6-3.7 10.6-9.1v-16.9h13c3.9 0 7-3.1 7-7s-3-7-6.9-7zM57 53zm.1 97.9c-.1 0-.1 0 0 0zm82.8 0zm-.1-97.9c.1 0 .1 0 0 0z" fill="#C2C2C2" data-color="1"></path>
    </g>
</svg>